<svg width="37" height="33" viewBox="0 0 37 33" fill="none" xmlns="http://www.w3.org/2000/svg">
<path d="M35.9572 7.99981L28.008 0.926963C27.3409 0.333429 26.4362 0 25.4929 0C24.5496 0 23.6449 0.333429 22.9777 0.926963L1.04235 20.447C0.71088 20.7401 0.44807 21.089 0.269148 21.4732C0.0902254 21.8574 -0.00125255 22.2694 1.29527e-05 22.6853V29.7598C1.29527e-05 30.5994 0.374817 31.4047 1.04197 31.9985C1.70913 32.5922 2.61399 32.9258 3.55749 32.9258H33.4403C34.0064 32.9258 34.5493 32.7256 34.9496 32.3694C35.3499 32.0131 35.5748 31.53 35.5748 31.0262C35.5748 30.5223 35.3499 30.0392 34.9496 29.6829C34.5493 29.3267 34.0064 29.1266 33.4403 29.1266H17.2538L35.9572 12.4781C36.2877 12.1841 36.5499 11.835 36.7287 11.4508C36.9076 11.0666 36.9997 10.6548 36.9997 10.239C36.9997 9.8231 36.9076 9.4113 36.7287 9.0271C36.5499 8.64289 36.2877 8.29382 35.9572 7.99981ZM19.2104 9.65563L21.167 11.3969L8.53795 22.6362L6.58134 20.8949L19.2104 9.65563ZM4.26898 29.1266V24.2192L7.02958 26.6745L9.78307 29.1266H4.26898ZM13.5184 27.0687L11.5618 25.3273L24.1908 14.088L26.1475 15.8293L13.5184 27.0687ZM29.1713 13.1382L22.2342 6.96453L25.4964 4.06131L32.4335 10.235L29.1713 13.1382Z" fill="#0013F4"/>
</svg>
