<svg width="13" height="14" viewBox="0 0 13 14" fill="none" xmlns="http://www.w3.org/2000/svg">
<path d="M12.1875 1.30973L8.93466 1.30974V0.437603C8.93466 0.195827 8.75286 0 8.52841 0C8.30395 0 8.12216 0.195827 8.12216 0.437603V1.30953H4.87216V0.437603C4.87216 0.195827 4.69036 0 4.46591 0C4.24145 0 4.05966 0.195827 4.05966 0.437603V1.30953H0.8125C0.363797 1.30953 0 1.7014 0 2.18473V13.1248C0 13.6081 0.363797 14 0.8125 14H12.1875C12.6362 14 13 13.6081 13 13.1248V2.18473C13 1.7016 12.6362 1.30973 12.1875 1.30973ZM12.1875 13.1248H0.8125V2.18473H4.05966V2.62562C4.05966 2.86738 4.24145 3.06322 4.46591 3.06322C4.69036 3.06322 4.87216 2.86738 4.87216 2.62562V2.18495H8.12216V2.62583C8.12216 2.86761 8.30395 3.06344 8.52841 3.06344C8.75286 3.06344 8.93466 2.86761 8.93466 2.62583V2.18495H12.1875V13.1248ZM9.34375 6.99856H10.1562C10.3805 6.99856 10.5625 6.80252 10.5625 6.56096V5.68576C10.5625 5.4442 10.3805 5.24815 10.1562 5.24815H9.34375C9.1195 5.24815 8.9375 5.4442 8.9375 5.68576V6.56096C8.9375 6.80252 9.1195 6.99856 9.34375 6.99856ZM9.34375 10.4992H10.1562C10.3805 10.4992 10.5625 10.3033 10.5625 10.0616V9.18636C10.5625 8.9448 10.3805 8.74876 10.1562 8.74876H9.34375C9.1195 8.74876 8.9375 8.9448 8.9375 9.18636V10.0616C8.9375 10.3036 9.1195 10.4992 9.34375 10.4992ZM6.90625 8.74876H6.09375C5.8695 8.74876 5.6875 8.9448 5.6875 9.18636V10.0616C5.6875 10.3033 5.8695 10.4992 6.09375 10.4992H6.90625C7.1305 10.4992 7.3125 10.3033 7.3125 10.0616V9.18636C7.3125 8.94502 7.1305 8.74876 6.90625 8.74876ZM6.90625 5.24815H6.09375C5.8695 5.24815 5.6875 5.4442 5.6875 5.68576V6.56096C5.6875 6.80252 5.8695 6.99856 6.09375 6.99856H6.90625C7.1305 6.99856 7.3125 6.80252 7.3125 6.56096V5.68576C7.3125 5.44398 7.1305 5.24815 6.90625 5.24815ZM3.65625 5.24815H2.84375C2.6195 5.24815 2.4375 5.4442 2.4375 5.68576V6.56096C2.4375 6.80252 2.6195 6.99856 2.84375 6.99856H3.65625C3.8805 6.99856 4.0625 6.80252 4.0625 6.56096V5.68576C4.0625 5.44398 3.8805 5.24815 3.65625 5.24815ZM3.65625 8.74876H2.84375C2.6195 8.74876 2.4375 8.9448 2.4375 9.18636V10.0616C2.4375 10.3033 2.6195 10.4992 2.84375 10.4992H3.65625C3.8805 10.4992 4.0625 10.3033 4.0625 10.0616V9.18636C4.0625 8.94502 3.8805 8.74876 3.65625 8.74876Z" fill="#0078FF"/>
</svg>
