<svg width="47" height="42" viewBox="0 0 47 42" fill="none" xmlns="http://www.w3.org/2000/svg">
<rect width="47" height="42" rx="5" fill="#3F52FF"/>
<path d="M37.2477 8.43757C36.5185 7.75624 35.4393 7.50424 34.4331 7.7709L10.9685 13.9696C9.90684 14.2389 9.15434 15.0082 8.95163 15.9842C8.74455 16.9789 9.46788 18.2429 10.4129 18.7709L17.7498 22.8669C18.5023 23.2882 19.4735 23.1829 20.0962 22.6122L28.4977 14.9309C28.9206 14.5296 29.6206 14.5296 30.0435 14.9309C30.4664 15.3162 30.4664 15.9442 30.0435 16.3442L21.6275 24.0256C21.0033 24.5962 20.8866 25.4816 21.346 26.1709L25.8289 32.9042C26.3539 33.7029 27.2581 34.1576 28.2498 34.1576C28.3664 34.1576 28.4977 34.1576 28.6143 34.1429C29.7518 34.0109 30.656 33.3029 30.9914 32.3029L37.9477 11.0109C38.2539 10.1042 37.9768 9.11757 37.2477 8.43757Z" fill="white"/>
<path opacity="0.4" d="M19.7832 30.5229C20.2091 30.9135 20.2091 31.5469 19.7832 31.9375L17.7912 33.7575C17.5782 33.9535 17.2982 34.0509 17.0182 34.0509C16.7382 34.0509 16.4582 33.9535 16.2453 33.7575C15.818 33.3669 15.818 32.7349 16.2453 32.3442L18.2359 30.5229C18.6632 30.1335 19.3559 30.1335 19.7832 30.5229ZM18.6403 25.4722C19.0662 25.8629 19.0662 26.4962 18.6403 26.8869L16.6483 28.7069C16.4353 28.9029 16.1553 29.0002 15.8753 29.0002C15.5953 29.0002 15.3153 28.9029 15.1024 28.7069C14.6751 28.3162 14.6751 27.6842 15.1024 27.2935L17.0931 25.4722C17.5203 25.0829 18.2131 25.0829 18.6403 25.4722ZM13.1553 23.8823C13.5811 24.273 13.5811 24.9063 13.1553 25.297L11.1632 27.117C10.9503 27.313 10.6703 27.4103 10.3903 27.4103C10.1103 27.4103 9.83026 27.313 9.61734 27.117C9.19005 26.7263 9.19005 26.0943 9.61734 25.7037L11.608 23.8823C12.0353 23.493 12.728 23.493 13.1553 23.8823Z" fill="white"/>
</svg>
