<svg width="13" height="15" viewBox="0 0 13 15" fill="none" xmlns="http://www.w3.org/2000/svg">
<path d="M5.50818 0.243993C5.67227 0.0877642 5.89479 0 6.12681 0C6.35884 0 6.58136 0.0877642 6.74545 0.243993L11.9955 5.24407C12.0182 5.26566 12.0395 5.28848 12.0594 5.31241L12.0647 5.31908L12.0787 5.33741L12.1154 5.38658L12.1233 5.39908L12.1294 5.40741L12.1417 5.42991L12.1627 5.46658L12.1688 5.48074L12.1775 5.49741L12.188 5.52408L12.2012 5.55241L12.2073 5.57325L12.2143 5.58991L12.2187 5.61158L12.2292 5.64241L12.2327 5.66575L12.2379 5.68658L12.2405 5.70825L12.2458 5.73575L12.2475 5.76075L12.2502 5.78408V5.80575L12.2519 5.83325L12.2502 5.86075V5.88242L12.2475 5.90408L12.2458 5.93075L12.2414 5.95492L12.2379 5.97992L12.2327 5.99992L12.2292 6.02492L12.2187 6.05409L12.2143 6.07659L12.2073 6.09242L12.2012 6.11409L12.188 6.14159L12.1775 6.16992L12.1688 6.18492L12.1627 6.19992L12.1417 6.23576L12.1294 6.25909L12.1233 6.26659L12.1154 6.27992L12.0787 6.32826L12.0682 6.34409L12.0647 6.34659L12.0594 6.35493C12.0192 6.40227 11.9738 6.4453 11.9238 6.48326L11.9159 6.48826L11.8967 6.50159L11.8459 6.5366L11.8319 6.5441L11.824 6.54993L11.7995 6.5616L11.7619 6.5816L11.7462 6.58743L11.7304 6.59576L11.7007 6.60576L11.6718 6.61826L11.6508 6.62326L11.6324 6.63076L11.6088 6.63493L11.5773 6.64493L11.5519 6.64826L11.5309 6.65326L11.5064 6.65576L11.4793 6.66076L11.4513 6.66243L11.4285 6.66493H11.4058L11.3769 6.6666H0.876729C0.0979665 6.6666 -0.293165 5.76908 0.258094 5.24407L5.50818 0.243993ZM11.3769 8.33329L11.4058 8.33496H11.4285L11.4513 8.33746L11.4793 8.33912L11.5064 8.34412L11.5309 8.34662L11.5519 8.35162L11.5782 8.35496L11.6088 8.36496L11.6324 8.36913L11.649 8.37579L11.6718 8.38163L11.7007 8.39413L11.7304 8.40413L11.7462 8.41246L11.7619 8.41829L11.7995 8.43829L11.824 8.44996L11.8319 8.45579L11.8459 8.46329L11.8905 8.49413L11.9133 8.50829L11.9159 8.51163L11.9247 8.51663C11.9745 8.55478 12.0197 8.5981 12.0594 8.6458L12.0647 8.6533L12.0778 8.66996L12.1154 8.71996L12.1233 8.7333L12.1294 8.7408L12.1417 8.76413L12.1627 8.79997L12.167 8.8108L12.1775 8.82997L12.188 8.8583L12.2012 8.8858L12.2073 8.90747L12.2143 8.92413L12.2187 8.9458L12.2292 8.9758L12.2327 8.99997L12.2379 9.01997L12.2405 9.0433L12.2458 9.06914L12.2475 9.0958L12.2502 9.11747V9.13914L12.2519 9.16664L12.2502 9.19414V9.21581L12.2475 9.23747L12.2458 9.26414L12.2405 9.28997L12.2379 9.31331L12.2327 9.33331L12.2292 9.35831L12.2187 9.38748L12.2143 9.40998L12.2073 9.42581L12.2012 9.44748L12.188 9.47498L12.1775 9.50331L12.1688 9.51831L12.1627 9.53331L12.1417 9.56914L12.1294 9.59248L12.1233 9.59998L12.1154 9.61331L12.0787 9.66165L12.0682 9.67748L12.0647 9.67998L12.0594 9.68831L11.9955 9.75581L6.74545 14.7559C6.58136 14.9121 6.35884 14.9999 6.12681 14.9999C5.89479 14.9999 5.67227 14.9121 5.50818 14.7559L0.258094 9.75581C-0.293165 9.23081 0.0970915 8.33329 0.876729 8.33329H11.3769Z" fill="#0078FF"/>
</svg>
