<svg width="40" height="40" viewBox="0 0 40 40" fill="none" xmlns="http://www.w3.org/2000/svg">
<path d="M23.2555 2.52836L20.4349 17.3478L30.653 17.3821L16.7443 37.4721L19.5649 21.1684L9.34738 21.1327L23.2555 2.52836ZM23.2574 0.0283984C23.1899 0.0283984 23.1224 0.0308594 23.0562 0.0358203C22.6149 0.0714844 22.3224 0.218984 21.9755 0.452109C21.7802 0.58232 21.6041 0.739264 21.4524 0.918359C21.4068 0.972112 21.3639 1.02801 21.3236 1.08586L7.3155 19.6252C6.76238 20.3834 6.68113 21.384 7.10613 22.2203C7.5305 23.0565 8.38863 23.5865 9.32925 23.5934L16.5455 23.6459L14.2768 37.0128C14.0611 38.1615 14.6736 39.3065 15.7518 39.7678C16.0651 39.9024 16.4026 39.9718 16.7436 39.9715C17.5292 39.9715 18.1748 39.604 18.6593 38.9403L32.6849 18.8502C33.238 18.0921 33.3187 17.0902 32.8943 16.2552C32.4699 15.4189 31.6118 14.8889 30.6711 14.8821L23.4549 14.8696L25.6993 3.11645C25.7468 2.92403 25.7708 2.72653 25.7705 2.52832C25.7705 1.17582 24.6936 0.0733203 23.3461 0.0295703C23.3162 0.0283203 23.2868 0.0283203 23.2574 0.0283203L23.2574 0.0283984Z" fill="#0013F4"/>
</svg>
